<?xml version="1.0" standalone="no"?>
<!DOCTYPE svg PUBLIC "-//W3C//DTD SVG 20010904//EN"
 "http://www.w3.org/TR/2001/REC-SVG-20010904/DTD/svg10.dtd">
<svg version="1.0" xmlns="http://www.w3.org/2000/svg"
 width="1280.000000pt" height="640.000000pt" viewBox="0 0 1280.000000 640.000000"
 preserveAspectRatio="xMidYMid meet">
<metadata>
Created by potrace 1.15, written by Peter Selinger 2001-2017
</metadata>
<g transform="translate(0.000000,640.000000) scale(0.100000,-0.100000)"
fill="#000000" stroke="none">
<path d="M7597 4896 c-9 -9 -19 -42 -22 -73 -9 -70 -27 -103 -59 -103 -36 0
-56 31 -64 101 l-7 64 -45 3 c-28 2 -53 -3 -65 -12 -18 -13 -19 -18 -7 -60 24
-90 13 -126 -40 -126 -34 0 -51 25 -72 104 -8 33 -21 63 -28 67 -24 16 -98 10
-105 -7 -3 -9 0 -54 7 -101 15 -97 9 -116 -37 -121 -39 -4 -66 28 -87 102 -21
73 -34 82 -91 66 -68 -19 -71 -35 -29 -124 20 -42 34 -83 30 -91 -3 -9 -18
-15 -35 -15 -24 0 -38 10 -68 47 -65 80 -81 93 -111 93 -16 0 -37 -9 -47 -20
-18 -19 -18 -22 -2 -53 10 -17 33 -51 52 -75 36 -44 46 -89 22 -98 -28 -10
-67 17 -108 75 -24 34 -46 61 -50 61 -16 0 -104 -66 -107 -80 -1 -9 18 -47 43
-85 48 -74 54 -92 30 -101 -25 -10 -58 3 -114 46 -66 48 -97 51 -140 11 l-31
-29 40 -83 c22 -46 40 -89 40 -96 0 -8 -12 -13 -29 -13 -33 0 -116 60 -126 90
-8 24 -29 21 -83 -12 -63 -38 -61 -59 15 -140 48 -53 52 -67 23 -93 -26 -24
-57 -15 -157 45 -46 28 -88 47 -97 44 -8 -3 -22 -17 -31 -30 -16 -24 -15 -26
44 -95 61 -70 71 -95 49 -117 -21 -21 -54 -13 -116 28 -77 52 -109 58 -145 30
-15 -12 -27 -26 -27 -31 0 -5 27 -41 60 -81 61 -72 70 -93 48 -101 -21 -7 -54
10 -115 58 -62 48 -94 55 -131 29 -34 -23 -27 -48 33 -115 33 -37 55 -71 55
-85 0 -50 -29 -41 -130 43 -35 29 -74 53 -86 53 -23 0 -74 -35 -74 -52 0 -5
29 -40 65 -77 36 -37 65 -72 65 -78 0 -17 -36 -43 -60 -43 -15 0 -36 15 -59
41 -76 88 -89 99 -118 99 -58 0 -68 -41 -28 -120 38 -74 35 -90 -19 -90 -52 0
-62 10 -96 94 l-25 61 -46 3 c-66 4 -71 -6 -57 -111 9 -69 9 -89 -1 -101 -19
-22 -38 -20 -66 9 -22 21 -25 33 -25 100 l0 75 -59 0 c-52 0 -62 -3 -79 -25
-11 -14 -23 -45 -27 -68 -19 -119 -95 -117 -95 3 0 82 -11 104 -60 124 -61 24
-90 3 -90 -65 0 -42 -15 -66 -46 -73 -44 -11 -54 7 -54 103 0 137 -26 144
-135 41 -41 -38 -82 -70 -92 -70 -46 0 -55 50 -23 123 23 51 16 75 -26 97 -32
18 -59 4 -111 -56 -51 -59 -76 -67 -111 -34 -26 24 -26 30 -8 91 13 42 13 49
-2 70 -45 66 -69 63 -120 -16 -46 -72 -79 -90 -112 -60 -26 23 -25 59 1 102
26 42 16 74 -31 98 -38 20 -65 12 -87 -23 -30 -48 -56 -72 -79 -72 -31 0 -45
30 -43 85 3 55 -13 74 -68 82 -45 6 -54 -2 -72 -67 -16 -57 -46 -90 -82 -90
-35 0 -44 17 -54 95 -8 73 -26 95 -75 95 -47 0 -55 -10 -69 -90 -11 -68 -28
-90 -67 -90 -28 0 -58 40 -73 96 -14 53 -51 72 -106 54 -45 -15 -52 -32 -31
-76 45 -96 0 -112 -79 -29 -61 63 -88 69 -126 29 l-24 -25 29 -53 c30 -55 30
-86 1 -86 -25 0 -55 19 -87 56 -32 37 -66 43 -112 23 -40 -19 -41 -39 -2 -71
36 -29 56 -82 38 -100 -15 -15 -53 -3 -97 32 -45 36 -64 37 -93 7 -31 -33 -27
-61 14 -102 40 -41 41 -63 1 -85 -26 -14 -31 -13 -92 19 -58 31 -67 33 -89 21
-40 -21 -40 -39 -1 -96 58 -84 34 -114 -59 -74 -120 51 -155 -7 -59 -97 61
-57 19 -66 -80 -16 -53 26 -81 24 -98 -9 -9 -17 -5 -26 35 -63 25 -23 46 -45
46 -49 0 -13 -39 -5 -84 19 -58 31 -68 31 -103 1 -33 -29 -27 -47 28 -84 29
-21 43 -23 100 -19 100 6 143 36 335 225 93 92 203 192 244 223 352 262 703
319 1160 189 121 -34 220 -73 405 -158 219 -100 594 -232 768 -269 67 -15 131
-18 347 -18 250 1 269 2 330 24 162 57 393 215 624 426 139 127 227 200 411
339 426 325 669 476 874 545 245 83 732 62 1076 -46 269 -85 600 -326 880
-643 55 -62 153 -170 218 -239 65 -69 139 -152 164 -186 47 -62 154 -159 334
-300 201 -159 282 -197 452 -215 50 -5 95 -14 101 -20 16 -17 -45 -67 -91 -76
-87 -16 -240 33 -376 120 -128 82 -414 342 -672 611 -454 473 -608 611 -812
726 -181 102 -322 151 -529 185 -136 22 -390 25 -489 5 -161 -32 -358 -120
-560 -252 -103 -67 -364 -261 -795 -590 -449 -343 -653 -471 -805 -505 -96
-22 -433 -30 -577 -14 -232 25 -312 50 -799 251 -339 139 -503 200 -638 237
-82 22 -115 25 -226 25 -162 -2 -346 -32 -430 -72 -135 -63 -333 -207 -517
-374 -163 -149 -203 -180 -268 -213 -54 -27 -58 -27 -250 -28 -219 -1 -244 -8
-308 -81 -72 -81 -84 -141 -49 -241 32 -93 27 -103 -50 -85 -108 24 -135 24
-197 2 -155 -54 -211 -144 -173 -279 9 -31 13 -60 11 -64 -3 -4 -33 -5 -68 -1
-56 5 -67 3 -96 -18 -52 -39 -507 -525 -547 -585 -43 -65 -38 -85 23 -96 54
-9 124 3 379 62 228 54 451 123 535 165 52 27 70 58 70 126 0 26 7 46 20 59
19 19 29 20 128 14 124 -7 168 2 239 49 53 35 93 101 93 152 -1 16 -11 62 -24
100 -34 102 -26 110 74 75 68 -24 186 -26 259 -4 104 31 171 125 156 220 -4
27 -15 70 -26 96 -29 75 -26 91 29 131 159 116 444 274 572 317 148 50 430 30
660 -46 114 -38 351 -158 597 -302 696 -408 1122 -609 1361 -643 113 -16 313
-6 392 21 177 59 272 119 708 448 643 486 687 515 928 607 116 44 122 45 235
45 357 0 644 -55 837 -161 42 -23 106 -58 142 -77 86 -46 225 -139 330 -222
110 -87 295 -219 510 -365 171 -116 351 -211 454 -240 93 -26 229 -37 396 -33
160 3 168 5 275 41 123 43 346 150 417 201 63 45 135 73 150 58 31 -31 -50
-100 -267 -231 -121 -74 -239 -125 -365 -158 -84 -23 -114 -26 -260 -26 -262
0 -449 39 -648 133 -144 69 -243 130 -470 293 -496 354 -733 487 -1029 572
-125 36 -210 48 -368 49 -132 1 -146 -1 -240 -31 -111 -36 -209 -89 -378 -206
-61 -42 -139 -95 -172 -116 -33 -22 -139 -101 -235 -175 -187 -146 -429 -317
-575 -408 -260 -163 -461 -216 -706 -189 -364 42 -646 175 -1589 753 -296 181
-444 248 -650 293 -196 44 -331 42 -472 -6 -155 -53 -460 -232 -466 -274 -3
-26 79 -170 97 -170 8 0 23 12 34 28 21 27 19 56 -8 120 -6 14 -2 17 23 17 23
0 39 -10 65 -40 37 -43 60 -49 96 -23 23 15 23 20 17 99 -6 81 -5 84 19 100
48 32 95 -5 95 -76 0 -47 9 -60 44 -60 71 0 76 6 76 79 0 36 6 77 13 91 17 33
70 50 127 40 53 -10 73 -34 65 -75 -20 -105 -21 -101 28 -114 69 -20 78 -14
103 59 33 95 83 125 132 80 25 -24 26 -34 11 -96 -14 -55 -1 -91 36 -100 22
-5 35 3 85 50 62 59 89 68 128 40 32 -22 27 -54 -14 -102 -45 -53 -43 -81 8
-100 37 -15 39 -14 100 27 34 23 73 41 88 41 24 0 60 -26 60 -44 0 -4 -20 -29
-45 -55 l-46 -49 31 -26 c18 -14 35 -26 40 -26 5 0 41 16 81 35 125 60 139 45
54 -57 -30 -36 -55 -69 -55 -71 0 -3 20 -22 44 -42 l44 -36 54 55 c69 71 128
85 172 40 23 -22 20 -36 -19 -90 -77 -108 -72 -94 -46 -115 36 -29 54 -23 114
35 55 54 105 76 142 62 26 -9 17 -32 -40 -101 -30 -37 -55 -71 -55 -76 0 -12
42 -39 61 -39 9 0 35 14 59 31 55 40 118 68 151 69 23 0 54 -24 74 -58 4 -9
-11 -39 -41 -83 -46 -66 -47 -70 -30 -88 10 -11 31 -23 47 -26 26 -6 38 2 107
64 42 39 79 71 82 71 3 0 25 -17 49 -38 l45 -38 -31 -67 -31 -66 47 -30 c26
-17 52 -31 58 -31 6 0 30 25 53 56 24 30 51 59 61 65 25 13 62 11 84 -5 19
-14 19 -16 2 -87 -10 -40 -14 -76 -10 -79 12 -11 73 -30 94 -30 27 0 46 25 63
83 19 64 44 90 83 85 l28 -3 1 -85 c0 -110 -2 -104 39 -123 77 -37 95 -19 106
104 13 168 66 160 125 -20 19 -55 32 -81 43 -82 43 -3 97 4 106 12 6 6 1 41
-14 100 -21 82 -21 93 -8 107 24 24 54 -2 102 -88 50 -91 62 -100 109 -77 20
9 36 23 36 31 0 8 -18 50 -41 92 -22 42 -39 86 -37 98 6 44 38 30 119 -55 l80
-83 34 18 c47 25 49 39 13 83 -68 85 -85 148 -44 159 38 9 63 -4 88 -44 12
-20 40 -56 61 -78 42 -46 60 -48 97 -9 l22 24 -56 77 c-31 42 -56 80 -56 84 0
4 9 15 20 25 31 28 68 11 135 -61 33 -35 66 -64 74 -64 8 0 36 14 62 31 l48
30 -52 46 c-91 79 -110 120 -66 143 23 13 34 7 114 -59 53 -44 92 -52 119 -25
24 24 20 34 -30 79 -42 36 -47 46 -48 84 -2 100 92 72 180 -54 20 -29 21 -29
46 -13 75 49 75 75 3 143 -63 58 -70 87 -27 109 26 14 32 13 62 -6 19 -11 55
-38 80 -59 25 -21 53 -39 61 -39 19 0 59 41 59 60 0 8 -22 34 -49 59 -55 51
-73 94 -48 118 22 22 75 2 136 -53 35 -31 58 -44 79 -44 30 0 82 33 82 52 0 6
-22 35 -50 64 -58 62 -63 88 -21 128 37 36 60 29 96 -27 59 -90 90 -106 136
-68 l24 20 -42 79 c-48 89 -54 126 -22 142 49 27 75 -2 112 -120 13 -44 14
-45 58 -45 l44 0 0 110 0 110 27 3 c24 3 28 -1 37 -35 6 -21 13 -63 16 -93 7
-71 16 -83 55 -82 45 1 58 16 66 80 12 100 46 140 109 128 55 -11 58 -68 9
-153 -33 -56 -30 -71 12 -89 51 -21 77 -12 121 43 59 74 109 123 125 123 8 0
22 -6 32 -13 25 -18 16 -41 -45 -112 -76 -90 -76 -91 -30 -115 22 -11 45 -20
51 -20 7 0 43 29 82 64 113 103 154 117 180 60 12 -26 10 -30 -75 -108 -48
-45 -87 -86 -87 -92 0 -6 18 -20 40 -33 46 -26 32 -31 177 68 68 46 82 52 115
48 44 -6 87 -35 88 -59 0 -10 -34 -46 -75 -80 -41 -34 -75 -68 -75 -75 0 -17
53 -43 87 -43 16 0 49 15 78 36 110 79 181 94 213 46 14 -21 12 -25 -34 -70
-27 -26 -65 -60 -84 -75 l-35 -27 24 -20 c43 -37 62 -35 169 19 111 56 131 60
155 33 30 -32 19 -54 -60 -127 -47 -44 -74 -75 -69 -83 4 -6 24 -16 44 -23 35
-10 40 -8 105 35 91 61 134 73 176 52 52 -27 50 -42 -18 -110 -33 -34 -61 -67
-61 -74 0 -14 71 -52 99 -52 11 0 39 20 62 45 51 55 115 82 162 69 46 -14 47
-44 3 -108 -20 -29 -36 -62 -36 -73 0 -26 29 -51 68 -59 29 -6 36 -2 65 31 17
21 53 60 79 88 46 47 49 49 70 35 33 -22 33 -41 3 -115 -30 -75 -26 -97 17
-112 59 -21 66 -16 105 67 42 90 68 122 99 122 44 0 49 -22 30 -126 -11 -54
-15 -99 -10 -104 10 -9 124 -24 124 -17 0 3 6 39 14 80 34 176 74 195 97 46 6
-41 13 -84 15 -95 2 -12 14 -24 26 -28 35 -9 96 -7 102 3 4 5 1 52 -6 104 -13
106 -6 140 32 150 27 7 51 -30 81 -123 30 -90 44 -110 79 -110 24 0 60 21 60
36 0 3 -13 39 -29 82 -50 130 -51 160 -8 179 37 17 63 -5 130 -108 35 -53 70
-95 81 -97 25 -5 66 18 66 37 0 9 -23 50 -50 91 -54 82 -60 104 -31 120 29 15
44 5 110 -76 34 -41 69 -75 79 -75 32 -2 47 2 59 18 17 22 -2 55 -71 123 -60
59 -67 77 -36 105 26 23 53 15 131 -40 98 -69 116 -77 139 -65 22 12 36 51 26
75 -3 8 -36 35 -74 59 -80 51 -91 69 -64 106 29 38 81 33 187 -18 96 -46 124
-51 148 -24 37 41 18 70 -85 135 -31 20 -59 45 -63 57 -9 27 20 60 52 60 13 0
91 -22 172 -50 81 -27 164 -50 183 -50 39 0 294 145 578 330 91 59 207 131
258 160 103 58 151 94 140 106 -4 4 -180 11 -390 15 -572 12 -662 32 -828 185
-86 79 -82 77 -194 99 -43 8 -97 26 -120 39 -51 30 -97 108 -98 165 -1 54 43
131 122 214 l65 68 180 6 179 6 116 120 c63 66 208 212 322 324 114 113 210
214 214 225 8 25 -9 37 -106 77 -224 91 -316 109 -388 72 -61 -31 -223 -136
-248 -160 -26 -25 -54 -110 -54 -161 0 -56 -34 -80 -114 -80 -192 -1 -349 -96
-536 -325 -122 -151 -164 -215 -281 -439 -103 -195 -169 -281 -253 -326 -44
-24 -46 -24 -63 -6 -17 17 -16 20 37 67 55 48 55 49 40 76 -21 37 -53 39 -123
8 -102 -45 -162 -26 -93 29 21 17 52 43 69 57 l31 26 -27 27 c-34 34 -51 33
-117 -9 -57 -37 -115 -46 -138 -23 -19 19 -15 25 53 79 36 28 65 56 65 62 0 6
-12 23 -26 38 l-26 27 -85 -41 c-65 -31 -89 -38 -102 -30 -31 20 -21 38 46 83
77 51 92 82 49 101 -21 10 -36 6 -104 -26 -82 -38 -124 -42 -130 -13 -2 13 15
29 58 55 35 21 74 47 88 59 l25 21 -33 23 c-36 26 -61 23 -173 -21 -48 -18
-62 -20 -83 -10 -20 9 -25 17 -22 38 3 24 13 32 75 58 98 41 106 50 70 81 -36
30 -40 30 -130 -6 -42 -16 -87 -30 -100 -30 -24 0 -57 23 -57 39 0 15 36 40
93 65 64 29 73 51 35 86 -29 27 -42 26 -102 -11 -55 -34 -128 -49 -141 -29
-11 18 40 66 96 90 27 11 49 25 49 31 0 5 -18 29 -39 52 l-39 42 -64 -32 c-35
-18 -77 -36 -95 -39 -41 -8 -83 2 -83 20 0 8 31 43 70 78 l70 64 -50 37 c-27
20 -52 37 -54 37 -3 0 -33 -18 -67 -40 -72 -46 -129 -55 -129 -20 0 12 20 43
45 69 49 53 54 70 27 94 -28 25 -58 21 -120 -18 -32 -19 -70 -35 -87 -36 -93
-7 -100 43 -19 134 19 20 34 41 34 46 0 5 -12 19 -26 30 -29 23 -35 21 -113
-34 -95 -67 -120 -52 -51 31 22 27 40 51 40 54 0 3 -25 21 -57 40 l-56 34 -72
-78 c-62 -68 -75 -77 -101 -74 -25 3 -29 7 -27 31 1 16 21 53 44 83 47 62 47
63 -34 100 -56 26 -67 17 -117 -97 -21 -47 -51 -69 -94 -69 -45 0 -50 22 -25
105 26 87 21 100 -44 115 -42 9 -80 -6 -85 -35 -15 -88 -53 -145 -97 -145 -35
0 -47 23 -45 87 3 78 3 81 -17 91 -38 20 -80 23 -96 8z m4219 -476 c54 -38 78
-81 71 -127 -8 -46 -22 -62 -82 -89 -60 -29 -97 -30 -151 -5 -98 44 -113 145
-32 217 30 28 43 32 101 33 38 1 58 -5 93 -29z m-4335 -26 c45 -40 13 -90 -80
-125 -105 -40 -168 -38 -197 5 -20 32 -8 56 43 86 98 59 192 72 234 34z m393
-5 c77 -61 35 -149 -70 -149 -29 0 -44 8 -75 39 -41 41 -46 56 -26 82 37 49
126 63 171 28z m321 -119 c8 -14 -27 -47 -205 -188 -191 -153 -380 -339 -380
-373 0 -26 42 -72 115 -124 52 -37 105 -86 105 -98 0 -21 -70 4 -175 62 -118
65 -161 74 -205 44 -14 -9 -76 -63 -138 -120 -62 -56 -133 -115 -158 -129 -41
-24 -47 -25 -61 -11 -26 25 0 71 99 173 48 50 88 98 88 107 0 9 -11 24 -24 32
-22 15 -27 15 -53 1 -15 -8 -59 -47 -98 -86 -102 -104 -159 -144 -193 -135
-43 10 -72 34 -72 58 0 13 24 52 58 91 31 38 76 94 100 125 l43 56 -38 17
c-21 10 -44 18 -51 18 -7 0 -62 -47 -122 -105 -109 -106 -129 -117 -171 -95
-45 25 0 112 107 206 35 31 64 60 64 63 0 14 -80 52 -98 47 -9 -3 -59 -48
-111 -100 -96 -98 -122 -113 -166 -96 -62 23 -44 75 60 176 151 145 170 147
402 28 92 -48 219 -113 282 -145 69 -36 126 -59 146 -59 39 0 71 23 273 192
239 201 405 319 507 361 48 19 62 20 70 7z m-1054 -70 c25 -25 28 -33 19 -50
-14 -26 -106 -86 -162 -106 -77 -27 -148 -9 -148 38 0 49 149 148 223 148 29
0 46 -7 68 -30z m514 -43 c27 -38 -18 -91 -158 -185 -104 -71 -133 -83 -191
-85 -66 -1 -96 9 -96 34 0 44 125 146 270 220 101 51 147 56 175 16z m811 -22
c82 -57 204 -164 216 -190 6 -13 8 -34 5 -47 -10 -38 -218 -233 -369 -346
-171 -129 -234 -162 -308 -162 -97 0 -126 17 -70 40 40 17 48 51 21 86 -12 15
-19 30 -16 33 3 3 54 8 113 11 79 5 117 12 140 26 58 33 45 56 -103 179 -112
94 -138 126 -116 148 14 14 92 -12 159 -53 122 -76 149 -90 173 -90 31 0 72
30 61 45 -4 6 -50 46 -102 90 -132 111 -158 143 -130 160 14 8 60 -17 180
-100 145 -99 146 -100 176 -80 13 8 24 21 24 28 0 6 -47 57 -105 113 -102 97
-125 134 -92 148 29 13 92 -4 143 -39z m3128 -46 c51 -40 21 -119 -44 -119
-39 0 -86 24 -100 50 -15 27 3 58 43 75 45 20 70 18 101 -6z m-219 -139 c16
-13 20 -77 6 -98 -4 -7 -26 -19 -47 -27 -33 -11 -44 -11 -74 1 -56 23 -72 54
-49 95 23 44 125 61 164 29z m-361 -64 c37 -15 51 -44 42 -82 -8 -32 -45 -48
-90 -40 -59 11 -75 68 -31 111 28 29 34 30 79 11z m-3045 -133 c72 -43 92 -66
73 -85 -9 -9 -27 -9 -85 0 -125 22 -172 58 -131 103 26 29 71 23 143 -18z
m891 -23 c11 -6 92 -92 180 -193 l161 -182 -25 -20 c-14 -11 -105 -63 -202
-115 -97 -52 -204 -110 -237 -127 -92 -51 -139 -44 -337 49 -139 65 -194 120
-158 156 25 25 75 10 240 -69 93 -45 186 -83 207 -86 34 -5 41 -2 56 21 27 41
7 116 -75 286 -39 80 -70 152 -70 161 0 23 21 39 52 39 35 0 123 -84 218 -210
102 -135 138 -158 162 -105 13 30 0 57 -120 254 -94 153 -99 166 -52 141z
m-2481 -97 c116 -67 371 -229 419 -266 127 -97 138 -199 18 -163 -76 23 -210
109 -390 250 -79 62 -146 134 -146 158 0 10 37 48 47 48 3 0 27 -12 52 -27z
m4449 -39 c42 -29 20 -105 -34 -118 -34 -9 -91 10 -104 34 -16 29 -12 49 15
75 29 29 88 34 123 9z m-4688 -28 c0 -19 -46 -64 -123 -123 -137 -103 -164
-145 -112 -179 35 -23 69 -12 179 57 84 53 100 59 147 59 60 0 98 -19 269
-133 176 -118 270 -188 270 -202 0 -15 -68 -75 -85 -75 -5 0 -86 65 -179 145
-92 80 -173 145 -180 145 -21 0 -130 -57 -199 -104 -38 -25 -78 -46 -89 -46
-31 0 -117 53 -170 104 -41 39 -48 51 -48 83 0 55 27 92 115 158 79 59 182
125 197 125 4 0 8 -6 8 -14z m-3088 -61 c39 -28 47 -41 83 -137 22 -59 51
-121 63 -138 27 -36 112 -80 155 -80 41 0 91 24 110 53 19 30 23 82 6 93 -21
13 -88 7 -113 -10 -38 -24 -82 -21 -101 8 -15 22 -15 27 0 55 35 68 149 87
240 40 61 -31 84 -69 88 -144 l2 -57 -53 -49 c-76 -70 -103 -81 -186 -81 -56
1 -81 7 -130 31 -77 38 -107 69 -176 184 -67 112 -91 128 -189 128 -38 0 -79
-5 -91 -11 -12 -6 -46 -49 -75 -95 -30 -46 -63 -89 -74 -95 -34 -18 -94 -11
-187 20 -102 35 -130 35 -156 0 -26 -35 -15 -58 39 -81 56 -24 57 -52 1 -57
-47 -4 -93 20 -113 58 -24 46 -19 76 20 119 68 74 140 89 225 46 27 -14 58
-25 69 -25 30 0 58 31 71 81 32 123 142 181 332 176 89 -2 99 -4 140 -32z
m5490 -47 c36 -38 78 -119 78 -149 0 -18 -4 -20 -27 -14 -36 8 -142 67 -171
95 -32 30 -25 61 18 82 49 25 68 23 102 -14z m-732 -107 c102 -23 200 -45 219
-49 19 -4 40 -16 48 -28 12 -18 11 -24 -5 -44 -18 -22 -18 -22 -94 -7 -42 9
-148 23 -235 32 -360 35 -399 42 -391 67 5 15 56 46 107 65 54 20 143 11 351
-36z m2890 6 c37 -29 42 -44 26 -75 -17 -34 -34 -42 -82 -42 -38 0 -74 29 -74
59 0 10 9 30 20 44 28 36 75 41 110 14z m-7762 -100 c34 -32 26 -68 -21 -90
-36 -18 -38 -18 -70 0 -44 26 -49 72 -10 102 32 26 65 22 101 -12z m8056 -8
c29 -23 35 -69 12 -88 -20 -17 -91 -18 -109 -2 -22 17 -31 66 -17 90 15 29 78
28 114 0z m-7077 -24 c48 -32 11 -115 -52 -115 -32 0 -89 42 -93 68 -9 61 80
90 145 47z m1841 -40 c12 -14 22 -33 22 -41 0 -40 -83 -74 -134 -54 -55 20
-57 97 -4 120 37 15 91 4 116 -25z m3684 -11 c90 -29 160 -74 206 -133 38 -51
40 -80 7 -111 -24 -22 -33 -23 -207 -28 -220 -5 -231 -9 -215 -75 8 -37 7 -51
-9 -83 -29 -59 -64 -79 -137 -79 -105 1 -212 73 -205 139 2 25 8 32 30 34 23
3 31 -4 60 -55 19 -32 45 -63 59 -70 33 -16 68 -6 75 21 6 26 -16 158 -46 265
-32 119 -13 140 60 66 24 -25 58 -49 74 -54 48 -15 328 -43 336 -34 18 19 21
71 6 86 -14 14 -102 38 -246 67 -68 13 -85 23 -77 44 16 41 96 41 229 0z
m1341 -46 c41 -54 -17 -107 -81 -74 -39 20 -49 50 -27 82 23 35 79 31 108 -8z
m-4392 -24 c43 -39 11 -108 -66 -140 -90 -37 -176 7 -141 73 42 82 151 117
207 67z m4838 -3 c38 -53 27 -78 -41 -100 -50 -16 -74 -7 -88 33 -13 41 -5 62
29 81 43 23 77 19 100 -14z m-7103 -36 c-22 -34 -20 -72 5 -85 32 -18 60 -5
128 55 61 55 82 63 111 45 12 -7 6 -21 -31 -77 -26 -37 -49 -73 -53 -80 -6
-10 20 -37 118 -125 34 -30 37 -37 27 -56 -23 -44 -79 -26 -197 64 -39 30 -88
61 -108 69 -34 15 -40 15 -62 0 -52 -34 -14 -97 120 -200 74 -57 97 -88 78
-107 -14 -14 -70 12 -168 78 -113 74 -188 145 -208 195 -15 37 -15 43 0 75 29
60 178 174 227 174 29 0 29 0 13 -25z m1325 15 c10 -6 19 -17 19 -25 0 -14
-26 -24 -130 -50 -77 -19 -190 -60 -215 -79 -27 -20 -12 -46 27 -47 75 -3 141
4 275 32 173 35 203 37 203 9 0 -13 -9 -22 -27 -26 -16 -3 -55 -14 -88 -24
-33 -11 -114 -33 -180 -51 -123 -32 -175 -53 -175 -69 0 -15 30 -40 56 -46 31
-8 53 -4 313 58 185 44 216 49 237 37 75 -39 -33 -83 -428 -174 -90 -20 -121
-32 -133 -48 -19 -28 -19 -33 5 -57 29 -29 108 -26 260 9 106 25 293 77 392
110 19 7 32 5 45 -5 17 -13 17 -15 -9 -38 -55 -49 -362 -151 -579 -192 -124
-23 -139 -36 -97 -81 17 -18 32 -23 69 -23 137 0 419 81 628 181 108 51 145
60 135 34 -10 -25 -169 -125 -262 -165 -195 -84 -342 -118 -529 -122 -105 -3
-114 2 -163 86 -58 103 -150 465 -136 540 9 48 54 98 114 127 50 24 305 106
335 108 10 0 27 -4 38 -9z m-1731 -46 c46 -42 48 -53 18 -82 -53 -49 -105 -46
-133 8 -23 45 -16 72 25 92 19 10 38 18 42 18 5 0 26 -16 48 -36z m5211 17 c4
-3 10 -24 14 -47 7 -48 -4 -62 -60 -71 -30 -5 -41 -1 -66 22 -16 16 -29 38
-29 50 0 24 25 50 55 58 22 5 77 -2 86 -12z m-3003 -21 c39 -24 47 -41 32 -69
-15 -30 -87 -64 -116 -57 -60 15 -82 76 -41 113 41 38 77 42 125 13z m-3874
-26 c9 -4 21 -15 27 -25 13 -26 -14 -77 -45 -85 -37 -9 -88 0 -99 17 -33 52
51 118 117 93z m2651 -28 c61 -30 79 -61 49 -83 -31 -23 -96 -35 -153 -30 -61
7 -165 54 -169 78 -2 9 15 26 45 43 42 23 56 26 111 23 40 -3 81 -14 117 -31z
m6288 -18 c52 -20 41 -80 -23 -125 -23 -16 -63 -3 -102 35 -45 42 -30 88 32
101 36 8 45 7 93 -11z m438 -10 c40 -22 51 -54 29 -88 -22 -35 -150 -3 -150
38 0 20 49 72 68 72 8 0 32 -10 53 -22z m-4870 -18 c25 -24 28 -33 20 -49 -20
-37 -62 -61 -105 -61 -84 0 -112 56 -57 111 42 41 101 41 142 -1z m4052 -21
c50 -26 264 -239 292 -292 18 -35 18 -38 3 -54 -21 -20 -40 -13 -116 45 -157
117 -292 252 -292 289 0 13 32 31 58 32 7 1 32 -9 55 -20z m-8755 -51 c28 -28
-3 -83 -33 -58 -8 7 -15 20 -15 29 0 17 18 41 30 41 3 0 11 -5 18 -12z m4312
2 c51 -27 43 -100 -12 -119 -50 -18 -78 -13 -109 18 -33 33 -37 61 -11 83 32
29 96 37 132 18z m5540 -10 c26 -26 25 -38 -2 -67 -25 -27 -48 -29 -88 -8 -35
18 -38 43 -10 73 26 28 73 29 100 2z m481 -16 c11 -14 10 -18 -6 -30 -25 -19
-74 -18 -81 1 -15 38 59 63 87 29z m-10598 -59 c156 -79 258 -218 217 -294
-16 -32 -87 -61 -164 -68 -58 -5 -71 -3 -119 22 -110 55 -217 174 -217 239 0
40 32 91 72 117 48 29 134 23 211 -16z m10377 15 c29 -29 25 -57 -11 -76 -39
-20 -86 -4 -95 33 -14 53 64 85 106 43z m-1945 -11 c52 -15 92 -58 215 -238
55 -80 116 -167 136 -193 l35 -47 -46 -27 c-123 -71 -465 -120 -482 -68 -2 6
39 18 102 28 58 9 140 27 183 39 l77 22 -2 34 c-3 64 -11 65 -195 42 -176 -22
-245 -26 -266 -12 -24 15 14 32 105 47 259 41 249 38 239 78 -10 39 -34 47
-118 36 -81 -10 -338 -13 -362 -4 -22 8 -20 31 4 44 10 6 80 17 154 26 182 21
230 33 234 60 2 11 -5 31 -16 44 -22 27 -35 27 -277 9 -147 -11 -164 -10 -194
6 -18 9 -29 20 -25 25 5 5 61 16 124 25 63 9 131 20 150 25 52 12 179 11 225
-1z m400 -3 c40 -17 69 -67 61 -102 -14 -56 -131 -70 -190 -23 -36 28 -34 62
7 93 26 20 65 41 85 45 1 1 18 -5 37 -13z m809 -8 c70 -31 25 -118 -62 -118
-34 0 -82 34 -82 58 0 9 12 29 27 44 29 31 73 37 117 16z m-6402 -25 c39 -36
11 -97 -50 -108 -72 -12 -124 28 -101 79 24 52 108 68 151 29z m6691 -55 c26
-21 31 -61 10 -86 -26 -30 -80 -33 -107 -6 -51 50 39 135 97 92z m-2072 -65
c44 -47 229 -297 229 -310 0 -21 -39 -45 -62 -40 -39 10 -123 90 -230 218 -77
93 -98 123 -87 130 8 4 23 15 34 23 36 28 77 20 116 -21z m2329 12 c17 -9 30
-22 30 -31 0 -23 -55 -74 -79 -74 -27 0 -64 37 -57 57 3 8 6 19 6 23 0 9 48
39 63 40 4 0 21 -7 37 -15z m-1106 -51 c42 -16 -2 -61 -92 -94 -64 -24 -129
-28 -173 -10 -50 21 -36 37 61 69 125 40 170 48 204 35z m-5994 -63 c28 -54
-12 -111 -78 -111 -53 0 -85 27 -85 70 0 45 24 60 95 60 46 0 59 -4 68 -19z
m6110 -58 c-33 -60 -250 -132 -250 -84 0 14 62 50 159 92 93 40 117 38 91 -8z
m-9629 -73 c56 -29 146 -115 170 -163 21 -40 27 -95 14 -116 -16 -27 -90 -51
-156 -51 -50 0 -77 6 -116 25 -97 49 -225 211 -208 264 21 67 197 91 296 41z
m3795 -16 c58 -28 57 -81 -2 -109 -83 -39 -174 45 -114 105 24 24 70 26 116 4z
m-4180 -375 c96 -59 80 -143 -33 -180 -21 -6 -49 -20 -63 -29 -14 -10 -81 -32
-150 -49 -167 -41 -160 -40 -160 -31 0 14 171 198 236 254 75 64 112 71 170
35z"/>
<path d="M11672 4371 c-46 -29 -60 -63 -38 -95 43 -67 203 -31 194 43 -7 56
-100 87 -156 52z"/>
<path d="M1408 2734 c-13 -12 -9 -53 6 -82 35 -66 183 -172 241 -172 26 0 75
36 75 55 0 30 -110 143 -163 170 -54 26 -146 43 -159 29z"/>
<path d="M974 2335 c-12 -31 9 -71 64 -125 75 -73 169 -102 216 -67 18 13 18
15 1 50 -20 44 -106 124 -152 143 -45 19 -122 18 -129 -1z"/>
<path d="M12194 4224 c-82 -56 -295 -245 -444 -394 -230 -229 -300 -345 -300
-495 0 -83 9 -112 57 -172 66 -83 228 -133 432 -133 153 0 739 38 783 50 71
20 102 94 53 126 -21 14 -40 16 -111 10 -46 -4 -118 -14 -159 -21 -96 -19
-341 -35 -570 -38 -172 -2 -182 -1 -228 22 -55 27 -103 86 -113 137 -6 35 22
135 59 209 32 65 157 184 417 400 260 214 285 238 276 253 -7 12 -96 72 -106
72 -4 0 -25 -12 -46 -26z"/>
<path d="M12368 3981 c-169 -86 -410 -265 -557 -414 l-85 -86 28 -71 c43 -110
90 -155 136 -130 19 10 20 17 14 100 -6 80 -5 90 11 96 13 5 31 -6 68 -45 60
-63 92 -85 112 -77 24 9 17 50 -21 125 -27 51 -35 76 -30 95 16 66 69 41 138
-63 29 -44 59 -83 66 -86 17 -6 82 23 82 38 0 6 -24 51 -54 101 -78 130 -82
169 -17 169 40 0 55 -13 116 -109 63 -97 98 -128 127 -113 25 13 21 29 -36
157 -24 53 -47 107 -51 120 -9 32 10 52 51 52 37 0 69 -25 191 -148 75 -74 92
-83 113 -57 10 12 10 21 1 41 -37 82 -272 344 -308 344 -10 0 -53 -18 -95 -39z"/>
<path d="M11170 3654 c-48 -21 -87 -60 -115 -114 -44 -88 -41 -122 14 -177 78
-79 212 -35 288 95 34 57 37 129 8 162 -43 49 -128 63 -195 34z m88 -86 c19
-19 14 -51 -18 -101 -49 -78 -110 -87 -110 -15 0 76 88 156 128 116z"/>
</g>
</svg>
